<svg viewBox="0 0 94 94" xmlns="http://www.w3.org/2000/svg">
<path d="M54.3001 37.1665H93.1667V76.0332L54.3001 37.1665ZM91.4001 19.9415L87.8667 2.71651L70.6417 6.24984L82.5667 21.7082L91.4001 19.9415ZM48.1167 28.3332L36.1917 12.8748L30.8917 13.7582L45.9084 28.7748L48.1167 28.3332V28.3332ZM6.60007 0.508179L0.858398 6.24984L12.3417 17.7332L10.1334 18.1748C5.27506 19.0582 2.1834 23.9165 3.06673 28.3332L4.8334 37.1665L27.3584 32.7498L31.7751 37.1665H4.8334V81.3332C4.8334 86.1915 8.8084 90.1665 13.6667 90.1665H84.7751L87.8667 93.2582L93.6084 87.5165L6.60007 0.508179ZM69.7584 24.3582L57.8334 8.45818L49.0001 10.2248L61.3667 25.6832L69.7584 24.3582Z" />
</svg>
