<svg width="13" height="12" viewBox="0 0 13 12" xmlns="http://www.w3.org/2000/svg">
<path d="M6.78029 0.172852C3.57556 0.172852 0.977051 2.77136 0.977051 5.97609C0.977051 9.18083 3.57556 11.7793 6.78029 11.7793C9.98503 11.7793 12.5835 9.18083 12.5835 5.97609C12.5835 2.77136 9.98503 0.172852 6.78029 0.172852ZM9.06661 7.75981L8.69614 8.265C8.68808 8.276 8.67793 8.2853 8.66626 8.29237C8.6546 8.29943 8.64166 8.30412 8.62817 8.30617C8.61469 8.30822 8.60094 8.30758 8.58771 8.30429C8.57447 8.30101 8.56202 8.29514 8.55106 8.28703L6.40852 6.72481C6.39517 6.71523 6.38432 6.70258 6.37688 6.68792C6.36945 6.67327 6.36564 6.65705 6.36577 6.64061V3.07447C6.36577 3.01748 6.41241 2.97084 6.4694 2.97084H7.09247C7.14947 2.97084 7.1961 3.01748 7.1961 3.07447V6.2805L9.0433 7.61603C9.08993 7.64841 9.10029 7.71318 9.06661 7.75981Z" />
</svg>
