<svg width="13" height="10" viewBox="0 0 13 10"  xmlns="http://www.w3.org/2000/svg">
<path d="M4.55018 4.99988C5.98633 4.99988 7.15028 3.88077 7.15028 2.49994C7.15028 1.11911 5.98633 0 4.55018 0C3.11403 0 1.95008 1.11911 1.95008 2.49994C1.95008 3.88077 3.11403 4.99988 4.55018 4.99988ZM6.37025 5.62487H6.03102C5.58006 5.82408 5.07832 5.93736 4.55018 5.93736C4.02203 5.93736 3.52233 5.82408 3.06934 5.62487H2.73011C1.22286 5.62487 0 6.80062 0 8.2498V9.06228C0 9.57985 0.436736 9.99976 0.975038 9.99976H6.55916C6.51041 9.86695 6.4901 9.72633 6.50635 9.58376L6.64448 8.39433L6.66885 8.17754L6.82933 8.02325L8.39955 6.51352C7.90187 5.97251 7.18075 5.62487 6.37025 5.62487ZM7.29044 8.46269L7.15231 9.65407C7.12997 9.85328 7.30466 10.0212 7.50983 9.99781L8.7469 9.865L11.5481 7.1717L10.0916 5.77135L7.29044 8.46269ZM12.8583 5.25183L12.0884 4.51161C11.8995 4.32998 11.5908 4.32998 11.4019 4.51161L10.634 5.24988L10.5507 5.32995L12.0092 6.73031L12.8583 5.91392C13.0472 5.73033 13.0472 5.43542 12.8583 5.25183Z" />
</svg>
