<svg width="277" height="72" viewBox="0 0 277 72" fill="none" xmlns="http://www.w3.org/2000/svg">
<path d="M57.5076 53.0332C56.1459 53.0332 54.9624 52.5304 53.9573 51.5249C52.9846 50.5518 52.4983 49.384 52.4983 48.0217C52.4983 46.6269 52.9846 45.4429 53.9573 44.4698C54.9624 43.4642 56.1459 42.9614 57.5076 42.9614C58.9018 42.9614 60.0852 43.4642 61.0579 44.4698C62.0306 45.4429 62.517 46.6269 62.517 48.0217C62.517 49.384 62.0306 50.5518 61.0579 51.5249C60.0852 52.5304 58.9018 53.0332 57.5076 53.0332Z" fill="white"/>
<path d="M69.0796 18.9741H88.8737V25.1047H76.1315V32.5004H86.6852V38.5824H76.1315V51.3789H69.0796V18.9741Z" fill="white"/>
<path d="M96.4041 15.8601H104.234V22.1854H96.4041V15.8601ZM92.6106 45.4916H97.2795V32.2085H92.6106V26.3211H104.137V45.4916H108.319V51.3789H92.6106V45.4916Z" fill="white"/>
<path d="M111.745 45.4916H116.171V21.6988H111.988V15.8601H123.028V45.4916H127.454V51.3789H111.745V45.4916Z" fill="white"/>
<path d="M131.957 26.3211H138.668V30.2136C140.646 27.1645 143.321 25.6399 146.693 25.6399C148.606 25.6399 150.227 26.0941 151.556 27.0023C152.918 27.8781 153.907 29.1432 154.523 30.7975C155.658 29.0134 156.922 27.7159 158.316 26.905C159.743 26.0616 161.364 25.6399 163.18 25.6399C165.871 25.6399 167.962 26.4509 169.454 28.0727C170.978 29.6622 171.739 31.8841 171.739 34.7386V51.3789H164.882V35.809C164.882 34.5115 164.558 33.506 163.909 32.7924C163.293 32.0463 162.45 31.6733 161.38 31.6733C160.051 31.6733 158.819 32.2247 157.684 33.3276C156.549 34.4304 155.706 35.8415 155.155 37.5606V51.3789H148.298V35.809C148.298 34.544 147.973 33.5384 147.325 32.7924C146.677 32.0463 145.817 31.6733 144.747 31.6733C143.548 31.6733 142.413 32.1274 141.343 33.0356C140.305 33.9114 139.462 35.1603 138.814 36.7821V51.3789H131.957V26.3211Z" fill="white"/>
<path d="M185.18 28.5106L183.137 51.3789H176.864L179.927 18.9741H188.682L196.95 42.2316L204.974 18.9741H213.728L216.695 51.3789H210.373L208.135 28.608L199.576 51.7195L193.788 52.2547L185.18 28.5106Z" fill="white"/>
<path d="M229.395 52.1088C226.801 52.1088 224.742 51.0059 223.219 48.8002C221.695 46.5944 220.933 43.594 220.933 39.7988C220.933 35.1927 222.1 31.6895 224.434 29.2891C226.769 26.8563 230.125 25.6399 234.502 25.6399C236.966 25.6399 239.851 26.0292 243.159 26.8077V51.3789H236.642L236.788 47.3891H236.593C235.75 48.9137 234.712 50.0814 233.48 50.8924C232.281 51.7033 230.919 52.1088 229.395 52.1088ZM230.854 46.1241C231.859 46.1241 232.848 45.5889 233.821 44.5184C234.794 43.448 235.701 42.0208 236.544 40.2367V32.0625C235.507 31.7706 234.469 31.6246 233.432 31.6246C231.486 31.6246 230.011 32.2896 229.006 33.6195C228.033 34.9494 227.547 36.9119 227.547 39.5069C227.547 41.5504 227.839 43.1723 228.422 44.3725C229.006 45.5402 229.817 46.1241 230.854 46.1241Z" fill="white"/>
<path d="M249.79 26.3211H256.453L256.307 29.5811H256.502C257.345 28.2836 258.366 27.2942 259.566 26.6131C260.798 25.9319 262.192 25.5913 263.748 25.5913C266.569 25.5913 268.774 26.6779 270.363 28.8512C271.984 30.9921 272.794 33.9925 272.794 37.8526C272.794 42.4262 271.595 45.9457 269.195 48.4109C266.829 50.8437 263.44 52.0601 259.031 52.0601C258.48 52.0601 257.653 52.0277 256.551 51.9628V61.9859H249.79V26.3211ZM259.712 46.0754C261.754 46.0754 263.294 45.4105 264.332 44.0805C265.402 42.7506 265.937 40.8044 265.937 38.2418C265.937 36.1658 265.597 34.544 264.916 33.3762C264.267 32.1761 263.359 31.576 262.192 31.576C261.155 31.576 260.149 32.0301 259.177 32.9383C258.204 33.8141 257.329 35.0792 256.551 36.7335V45.6375C257.653 45.9295 258.707 46.0754 259.712 46.0754Z" fill="white"/>
<path d="M38.2857 49.5304H42.0419V53.287H27.0095C16.6315 53.287 8.21893 44.878 8.21893 34.5044C8.21893 24.1307 16.6315 15.7217 27.0095 15.7217C37.3875 15.7217 45.8 24.1307 45.8 34.5044C45.8024 37.4205 45.1245 40.297 43.8201 42.9054C42.5156 45.5138 40.6207 47.7822 38.2857 49.5304ZM27.0095 30.7478C28.0062 30.7478 28.9621 30.3521 29.6669 29.6476C30.3716 28.9431 30.7676 27.9876 30.7676 26.9913C30.7676 25.995 30.3716 25.0395 29.6669 24.335C28.9621 23.6306 28.0062 23.2348 27.0095 23.2348C26.0128 23.2348 25.0569 23.6306 24.3521 24.335C23.6473 25.0395 23.2514 25.995 23.2514 26.9913C23.2514 27.9876 23.6473 28.9431 24.3521 29.6476C25.0569 30.3521 26.0128 30.7478 27.0095 30.7478ZM19.4933 38.2609C20.49 38.2609 21.4459 37.8651 22.1506 37.1606C22.8554 36.4561 23.2514 35.5006 23.2514 34.5044C23.2514 33.5081 22.8554 32.5526 22.1506 31.8481C21.4459 31.1436 20.49 30.7478 19.4933 30.7478C18.4965 30.7478 17.5407 31.1436 16.8359 31.8481C16.1311 32.5526 15.7351 33.5081 15.7351 34.5044C15.7351 35.5006 16.1311 36.4561 16.8359 37.1606C17.5407 37.8651 18.4965 38.2609 19.4933 38.2609ZM34.5257 38.2609C35.5224 38.2609 36.4783 37.8651 37.1831 37.1606C37.8879 36.4561 38.2838 35.5006 38.2838 34.5044C38.2838 33.5081 37.8879 32.5526 37.1831 31.8481C36.4783 31.1436 35.5224 30.7478 34.5257 30.7478C33.529 30.7478 32.5731 31.1436 31.8683 31.8481C31.1635 32.5526 30.7676 33.5081 30.7676 34.5044C30.7676 35.5006 31.1635 36.4561 31.8683 37.1606C32.5731 37.8651 33.529 38.2609 34.5257 38.2609ZM27.0095 45.7739C28.0062 45.7739 28.9621 45.3781 29.6669 44.6737C30.3716 43.9692 30.7676 43.0137 30.7676 42.0174C30.7676 41.0211 30.3716 40.0656 29.6669 39.3611C28.9621 38.6566 28.0062 38.2609 27.0095 38.2609C26.0128 38.2609 25.0569 38.6566 24.3521 39.3611C23.6473 40.0656 23.2514 41.0211 23.2514 42.0174C23.2514 43.0137 23.6473 43.9692 24.3521 44.6737C25.0569 45.3781 26.0128 45.7739 27.0095 45.7739Z" fill="white"/>
</svg>
