<svg width="637" height="514" viewBox="0 0 637 514" fill="none" xmlns="http://www.w3.org/2000/svg">
<path d="M285.277 15L276.096 16.8472L282.497 25.2309L287.099 24.2835L285.277 15V15ZM269.228 18.2208L264.626 19.1444L271.05 27.5044L275.629 26.5808L269.228 18.2208V18.2208ZM257.781 20.4943L253.179 21.4653L259.603 29.8253L264.182 28.9016L257.781 20.4943ZM246.311 22.8626L244.022 23.3126C242.808 23.5584 241.74 24.2826 241.052 25.3261C240.365 26.3695 240.114 27.647 240.354 28.878L241.265 33.5197L252.712 31.2225L246.311 22.8626ZM241.265 33.5197V57.2023C241.265 58.4585 241.758 59.6632 242.634 60.5515C243.51 61.4397 244.698 61.9388 245.938 61.9388L283.314 61.9388C285.907 61.9388 287.986 59.831 287.986 57.2023V33.5197H241.265Z" fill="#141313"/>
<path d="M171 36C171 33.6025 169.3 31.5975 167.047 31.115C167.947 29.6125 168.5 27.875 168.5 26C168.5 20.485 164.015 16 158.5 16C154.707 16 151.447 18.1425 149.75 21.26C148.052 18.1425 144.792 16 141 16C135.485 16 131 20.485 131 26C131 28.255 131.78 30.3175 133.042 31.99C132.411 32.4514 131.898 33.0548 131.543 33.7514C131.188 34.448 131.002 35.2183 131 36V56C131 58.7575 133.242 61 136 61H166C168.757 61 171 58.7575 171 56V49.405L181 54.405V36.905L171 41.905V36ZM158.5 21C161.257 21 163.5 23.2425 163.5 26C163.5 28.7575 161.257 31 158.5 31C155.742 31 153.5 28.7575 153.5 26C153.5 23.2425 155.742 21 158.5 21ZM141 21C143.757 21 146 23.2425 146 26C146 28.7575 143.757 31 141 31C138.242 31 136 28.7575 136 26C136 23.2425 138.242 21 141 21ZM136 56V36H166L166.005 56H136Z" fill="#141313"/>
<path d="M33.9303 62.7211H28.5616C28.5616 62.7211 26.7721 62.7211 26.3188 59.4999L22.0954 19.3188L22 18.5791C22 16.5987 24.1474 15 26.7721 15C29.3968 15 31.5442 16.5987 31.5442 18.5791C31.5442 16.5987 33.6917 15 36.3163 15C38.941 15 41.0884 16.5987 41.0884 18.5791C41.0884 16.5987 43.2359 15 45.8605 15C48.4613 15 50.6326 16.5748 50.6326 18.5791C50.6326 16.5987 52.7801 15 55.4047 15C58.0294 15 60.1769 16.5987 60.1769 18.5791C60.1769 16.5987 62.3243 15 64.949 15C67.5736 15 69.7211 16.5987 69.7211 18.5791L69.6256 19.3188L65.4023 59.4999C64.949 62.7211 63.1594 62.7211 63.1594 62.7211L33.9303 62.7211ZM59.8189 21.9911C59.1031 20.7027 57.409 19.7721 55.4047 19.7721C53.472 19.7721 51.4916 20.6311 50.6326 21.848L50.1077 57.949H56.9795L59.8189 21.9911ZM41.0884 21.848C40.2294 20.6311 38.249 19.7721 36.3163 19.7721C34.312 19.7721 32.6179 20.7027 31.9021 21.9911L34.7415 57.949H41.6134L41.0884 21.848Z" fill="#141313"/>
<path d="M610.277 15L601.096 16.8472L607.497 25.2309L612.099 24.2835L610.277 15V15ZM594.228 18.2208L589.626 19.1444L596.05 27.5044L600.629 26.5808L594.228 18.2208V18.2208ZM582.781 20.4943L578.179 21.4653L584.603 29.8253L589.182 28.9016L582.781 20.4943ZM571.311 22.8626L569.022 23.3126C567.808 23.5584 566.74 24.2826 566.052 25.3261C565.365 26.3695 565.114 27.647 565.354 28.878L566.265 33.5197L577.712 31.2225L571.311 22.8626ZM566.265 33.5197V57.2023C566.265 58.4585 566.758 59.6632 567.634 60.5515C568.51 61.4397 569.698 61.9388 570.938 61.9388L608.314 61.9388C610.907 61.9388 612.986 59.831 612.986 57.2023V33.5197H566.265Z" fill="#141313"/>
<path d="M496 36C496 33.6025 494.3 31.5975 492.047 31.115C492.947 29.6125 493.5 27.875 493.5 26C493.5 20.485 489.015 16 483.5 16C479.707 16 476.447 18.1425 474.75 21.26C473.052 18.1425 469.792 16 466 16C460.485 16 456 20.485 456 26C456 28.255 456.78 30.3175 458.042 31.99C457.411 32.4514 456.898 33.0548 456.543 33.7514C456.188 34.448 456.002 35.2183 456 36V56C456 58.7575 458.242 61 461 61H491C493.757 61 496 58.7575 496 56V49.405L506 54.405V36.905L496 41.905V36ZM483.5 21C486.257 21 488.5 23.2425 488.5 26C488.5 28.7575 486.257 31 483.5 31C480.742 31 478.5 28.7575 478.5 26C478.5 23.2425 480.742 21 483.5 21ZM466 21C468.757 21 471 23.2425 471 26C471 28.7575 468.757 31 466 31C463.242 31 461 28.7575 461 26C461 23.2425 463.242 21 466 21ZM461 56V36H491L491.005 56H461Z" fill="#141313"/>
<path d="M358.93 62.7211H353.562C353.562 62.7211 351.772 62.7211 351.319 59.4999L347.095 19.3188L347 18.5791C347 16.5987 349.147 15 351.772 15C354.397 15 356.544 16.5987 356.544 18.5791C356.544 16.5987 358.692 15 361.316 15C363.941 15 366.088 16.5987 366.088 18.5791C366.088 16.5987 368.236 15 370.861 15C373.461 15 375.633 16.5748 375.633 18.5791C375.633 16.5987 377.78 15 380.405 15C383.029 15 385.177 16.5987 385.177 18.5791C385.177 16.5987 387.324 15 389.949 15C392.574 15 394.721 16.5987 394.721 18.5791L394.626 19.3188L390.402 59.4999C389.949 62.7211 388.159 62.7211 388.159 62.7211L358.93 62.7211ZM384.819 21.9911C384.103 20.7027 382.409 19.7721 380.405 19.7721C378.472 19.7721 376.492 20.6311 375.633 21.848L375.108 57.949H381.98L384.819 21.9911ZM366.088 21.848C365.229 20.6311 363.249 19.7721 361.316 19.7721C359.312 19.7721 357.618 20.7027 356.902 21.9911L359.742 57.949H366.613L366.088 21.848Z" fill="#141313"/>
<path d="M394.277 103L385.096 104.847L391.497 113.231L396.099 112.284L394.277 103V103ZM378.228 106.221L373.626 107.144L380.05 115.504L384.629 114.581L378.228 106.221V106.221ZM366.781 108.494L362.179 109.465L368.603 117.825L373.182 116.902L366.781 108.494ZM355.311 110.863L353.022 111.313C351.808 111.558 350.74 112.283 350.052 113.326C349.365 114.37 349.114 115.647 349.354 116.878L350.265 121.52L361.712 119.223L355.311 110.863ZM350.265 121.52V145.202C350.265 146.458 350.758 147.663 351.634 148.551C352.51 149.44 353.698 149.939 354.938 149.939H392.314C394.907 149.939 396.986 147.831 396.986 145.202V121.52H350.265Z" fill="#141313"/>
<path d="M280 124C280 121.603 278.3 119.597 276.047 119.115C276.947 117.612 277.5 115.875 277.5 114C277.5 108.485 273.015 104 267.5 104C263.707 104 260.447 106.143 258.75 109.26C257.052 106.143 253.792 104 250 104C244.485 104 240 108.485 240 114C240 116.255 240.78 118.317 242.042 119.99C241.411 120.451 240.898 121.055 240.543 121.751C240.188 122.448 240.002 123.218 240 124V144C240 146.758 242.242 149 245 149H275C277.757 149 280 146.758 280 144V137.405L290 142.405V124.905L280 129.905V124ZM267.5 109C270.257 109 272.5 111.242 272.5 114C272.5 116.758 270.257 119 267.5 119C264.742 119 262.5 116.758 262.5 114C262.5 111.242 264.742 109 267.5 109ZM250 109C252.757 109 255 111.242 255 114C255 116.758 252.757 119 250 119C247.242 119 245 116.758 245 114C245 111.242 247.242 109 250 109ZM245 144V124H275L275.005 144H245Z" fill="#141313"/>
<path d="M142.93 150.721H137.562C137.562 150.721 135.772 150.721 135.319 147.5L131.095 107.319L131 106.579C131 104.599 133.147 103 135.772 103C138.397 103 140.544 104.599 140.544 106.579C140.544 104.599 142.692 103 145.316 103C147.941 103 150.088 104.599 150.088 106.579C150.088 104.599 152.236 103 154.861 103C157.461 103 159.633 104.575 159.633 106.579C159.633 104.599 161.78 103 164.405 103C167.029 103 169.177 104.599 169.177 106.579C169.177 104.599 171.324 103 173.949 103C176.574 103 178.721 104.599 178.721 106.579L178.626 107.319L174.402 147.5C173.949 150.721 172.159 150.721 172.159 150.721H142.93ZM168.819 109.991C168.103 108.703 166.409 107.772 164.405 107.772C162.472 107.772 160.492 108.631 159.633 109.848L159.108 145.949H165.98L168.819 109.991ZM150.088 109.848C149.229 108.631 147.249 107.772 145.316 107.772C143.312 107.772 141.618 108.703 140.902 109.991L143.742 145.949H150.613L150.088 109.848Z" fill="#141313"/>
<path d="M67.0113 103L57.8306 104.847L64.2314 113.231L68.8334 112.284L67.0113 103V103ZM50.9626 106.221L46.3606 107.144L52.7848 115.504L57.3634 114.581L50.9626 106.221V106.221ZM39.516 108.494L34.914 109.465L41.3381 117.825L45.9168 116.902L39.516 108.494ZM28.046 110.863L25.7567 111.313C24.5429 111.558 23.4749 112.283 22.7872 113.326C22.0996 114.37 21.8485 115.647 22.0891 116.878L23.0002 121.52L34.4468 119.223L28.046 110.863ZM23.0002 121.52V145.202C23.0002 146.458 23.4924 147.663 24.3686 148.551C25.2448 149.44 26.4332 149.939 27.6723 149.939H65.049C67.642 149.939 69.7211 147.831 69.7211 145.202V121.52H23.0002Z" fill="#141313"/>
<path d="M605 124C605 121.603 603.3 119.597 601.047 119.115C601.947 117.612 602.5 115.875 602.5 114C602.5 108.485 598.015 104 592.5 104C588.707 104 585.447 106.143 583.75 109.26C582.052 106.143 578.792 104 575 104C569.485 104 565 108.485 565 114C565 116.255 565.78 118.317 567.042 119.99C566.411 120.451 565.898 121.055 565.543 121.751C565.188 122.448 565.002 123.218 565 124V144C565 146.758 567.242 149 570 149H600C602.757 149 605 146.758 605 144V137.405L615 142.405V124.905L605 129.905V124ZM592.5 109C595.257 109 597.5 111.242 597.5 114C597.5 116.758 595.257 119 592.5 119C589.742 119 587.5 116.758 587.5 114C587.5 111.242 589.742 109 592.5 109ZM575 109C577.757 109 580 111.242 580 114C580 116.758 577.757 119 575 119C572.242 119 570 116.758 570 114C570 111.242 572.242 109 575 109ZM570 144V124H600L600.005 144H570Z" fill="#141313"/>
<path d="M467.93 150.721H462.562C462.562 150.721 460.772 150.721 460.319 147.5L456.095 107.319L456 106.579C456 104.599 458.147 103 460.772 103C463.397 103 465.544 104.599 465.544 106.579C465.544 104.599 467.692 103 470.316 103C472.941 103 475.088 104.599 475.088 106.579C475.088 104.599 477.236 103 479.861 103C482.461 103 484.633 104.575 484.633 106.579C484.633 104.599 486.78 103 489.405 103C492.029 103 494.177 104.599 494.177 106.579C494.177 104.599 496.324 103 498.949 103C501.574 103 503.721 104.599 503.721 106.579L503.626 107.319L499.402 147.5C498.949 150.721 497.159 150.721 497.159 150.721H467.93ZM493.819 109.991C493.103 108.703 491.409 107.772 489.405 107.772C487.472 107.772 485.492 108.631 484.633 109.848L484.108 145.949H490.98L493.819 109.991ZM475.088 109.848C474.229 108.631 472.249 107.772 470.316 107.772C468.312 107.772 466.618 108.703 465.902 109.991L468.742 145.949H475.613L475.088 109.848Z" fill="#141313"/>
<path d="M503.277 190L494.096 191.847L500.497 200.231L505.099 199.284L503.277 190V190ZM487.228 193.221L482.626 194.144L489.05 202.504L493.629 201.581L487.228 193.221V193.221ZM475.781 195.494L471.179 196.465L477.603 204.825L482.182 203.902L475.781 195.494ZM464.311 197.863L462.022 198.313C460.808 198.558 459.74 199.283 459.052 200.326C458.365 201.37 458.114 202.647 458.354 203.878L459.265 208.52L470.712 206.223L464.311 197.863ZM459.265 208.52V232.202C459.265 233.458 459.758 234.663 460.634 235.551C461.51 236.44 462.698 236.939 463.938 236.939H501.314C503.907 236.939 505.986 234.831 505.986 232.202V208.52H459.265Z" fill="#141313"/>
<path d="M389 211C389 208.603 387.3 206.597 385.047 206.115C385.947 204.612 386.5 202.875 386.5 201C386.5 195.485 382.015 191 376.5 191C372.707 191 369.447 193.143 367.75 196.26C366.052 193.143 362.792 191 359 191C353.485 191 349 195.485 349 201C349 203.255 349.78 205.317 351.042 206.99C350.411 207.451 349.898 208.055 349.543 208.751C349.188 209.448 349.002 210.218 349 211V231C349 233.758 351.242 236 354 236H384C386.757 236 389 233.758 389 231V224.405L399 229.405V211.905L389 216.905V211ZM376.5 196C379.257 196 381.5 198.242 381.5 201C381.5 203.758 379.257 206 376.5 206C373.742 206 371.5 203.758 371.5 201C371.5 198.242 373.742 196 376.5 196ZM359 196C361.757 196 364 198.242 364 201C364 203.758 361.757 206 359 206C356.242 206 354 203.758 354 201C354 198.242 356.242 196 359 196ZM354 231V211H384L384.005 231H354Z" fill="#141313"/>
<path d="M251.93 237.721H246.562C246.562 237.721 244.772 237.721 244.319 234.5L240.095 194.319L240 193.579C240 191.599 242.147 190 244.772 190C247.397 190 249.544 191.599 249.544 193.579C249.544 191.599 251.692 190 254.316 190C256.941 190 259.088 191.599 259.088 193.579C259.088 191.599 261.236 190 263.861 190C266.461 190 268.633 191.575 268.633 193.579C268.633 191.599 270.78 190 273.405 190C276.029 190 278.177 191.599 278.177 193.579C278.177 191.599 280.324 190 282.949 190C285.574 190 287.721 191.599 287.721 193.579L287.626 194.319L283.402 234.5C282.949 237.721 281.159 237.721 281.159 237.721H251.93ZM277.819 196.991C277.103 195.703 275.409 194.772 273.405 194.772C271.472 194.772 269.492 195.631 268.633 196.848L268.108 232.949H274.98L277.819 196.991ZM259.088 196.848C258.229 195.631 256.249 194.772 254.316 194.772C252.312 194.772 250.618 195.703 249.902 196.991L252.742 232.949H259.613L259.088 196.848Z" fill="#141313"/>
<path d="M176.277 190L167.096 191.847L173.497 200.231L178.099 199.284L176.277 190V190ZM160.228 193.221L155.626 194.144L162.05 202.504L166.629 201.581L160.228 193.221V193.221ZM148.781 195.494L144.179 196.465L150.603 204.825L155.182 203.902L148.781 195.494ZM137.311 197.863L135.022 198.313C133.808 198.558 132.74 199.283 132.052 200.326C131.365 201.37 131.114 202.647 131.354 203.878L132.265 208.52L143.712 206.223L137.311 197.863ZM132.265 208.52V232.202C132.265 233.458 132.758 234.663 133.634 235.551C134.51 236.44 135.698 236.939 136.938 236.939H174.314C176.907 236.939 178.986 234.831 178.986 232.202V208.52H132.265Z" fill="#141313"/>
<path d="M62 211C62 208.603 60.3 206.597 58.0475 206.115C58.9475 204.612 59.5 202.875 59.5 201C59.5 195.485 55.015 191 49.5 191C45.7075 191 42.4475 193.143 40.75 196.26C39.0525 193.143 35.7925 191 32 191C26.485 191 22 195.485 22 201C22 203.255 22.78 205.317 24.0425 206.99C23.4115 207.451 22.8978 208.055 22.543 208.751C22.1882 209.448 22.0022 210.218 22 211V231C22 233.758 24.2425 236 27 236H57C59.7575 236 62 233.758 62 231V224.405L72 229.405V211.905L62 216.905V211ZM49.5 196C52.2575 196 54.5 198.242 54.5 201C54.5 203.758 52.2575 206 49.5 206C46.7425 206 44.5 203.758 44.5 201C44.5 198.242 46.7425 196 49.5 196ZM32 196C34.7575 196 37 198.242 37 201C37 203.758 34.7575 206 32 206C29.2425 206 27 203.758 27 201C27 198.242 29.2425 196 32 196ZM27 231V211H57L57.005 231H27Z" fill="#141313"/>
<path d="M576.93 237.721H571.562C571.562 237.721 569.772 237.721 569.319 234.5L565.095 194.319L565 193.579C565 191.599 567.147 190 569.772 190C572.397 190 574.544 191.599 574.544 193.579C574.544 191.599 576.692 190 579.316 190C581.941 190 584.088 191.599 584.088 193.579C584.088 191.599 586.236 190 588.861 190C591.461 190 593.633 191.575 593.633 193.579C593.633 191.599 595.78 190 598.405 190C601.029 190 603.177 191.599 603.177 193.579C603.177 191.599 605.324 190 607.949 190C610.574 190 612.721 191.599 612.721 193.579L612.626 194.319L608.402 234.5C607.949 237.721 606.159 237.721 606.159 237.721H576.93ZM602.819 196.991C602.103 195.703 600.409 194.772 598.405 194.772C596.472 194.772 594.492 195.631 593.633 196.848L593.108 232.949H599.98L602.819 196.991ZM584.088 196.848C583.229 195.631 581.249 194.772 579.316 194.772C577.312 194.772 575.618 195.703 574.902 196.991L577.742 232.949H584.613L584.088 196.848Z" fill="#141313"/>
<path d="M285.277 276L276.096 277.847L282.497 286.231L287.099 285.284L285.277 276V276ZM269.228 279.221L264.626 280.144L271.05 288.504L275.629 287.581L269.228 279.221V279.221ZM257.781 281.494L253.179 282.465L259.603 290.825L264.182 289.902L257.781 281.494ZM246.311 283.863L244.022 284.313C242.808 284.558 241.74 285.283 241.052 286.326C240.365 287.37 240.114 288.647 240.354 289.878L241.265 294.52L252.712 292.223L246.311 283.863ZM241.265 294.52V318.202C241.265 319.458 241.758 320.663 242.634 321.551C243.51 322.44 244.698 322.939 245.938 322.939H283.314C285.907 322.939 287.986 320.831 287.986 318.202V294.52H241.265Z" fill="#141313"/>
<path d="M171 297C171 294.603 169.3 292.597 167.047 292.115C167.947 290.612 168.5 288.875 168.5 287C168.5 281.485 164.015 277 158.5 277C154.707 277 151.447 279.143 149.75 282.26C148.052 279.143 144.792 277 141 277C135.485 277 131 281.485 131 287C131 289.255 131.78 291.317 133.042 292.99C132.411 293.451 131.898 294.055 131.543 294.751C131.188 295.448 131.002 296.218 131 297V317C131 319.758 133.242 322 136 322H166C168.757 322 171 319.758 171 317V310.405L181 315.405V297.905L171 302.905V297ZM158.5 282C161.257 282 163.5 284.242 163.5 287C163.5 289.758 161.257 292 158.5 292C155.742 292 153.5 289.758 153.5 287C153.5 284.242 155.742 282 158.5 282ZM141 282C143.757 282 146 284.242 146 287C146 289.758 143.757 292 141 292C138.242 292 136 289.758 136 287C136 284.242 138.242 282 141 282ZM136 317V297H166L166.005 317H136Z" fill="#141313"/>
<path d="M33.9303 323.721H28.5616C28.5616 323.721 26.7721 323.721 26.3188 320.5L22.0954 280.319L22 279.579C22 277.599 24.1474 276 26.7721 276C29.3968 276 31.5442 277.599 31.5442 279.579C31.5442 277.599 33.6917 276 36.3163 276C38.941 276 41.0884 277.599 41.0884 279.579C41.0884 277.599 43.2359 276 45.8605 276C48.4613 276 50.6326 277.575 50.6326 279.579C50.6326 277.599 52.7801 276 55.4047 276C58.0294 276 60.1769 277.599 60.1769 279.579C60.1769 277.599 62.3243 276 64.949 276C67.5736 276 69.7211 277.599 69.7211 279.579L69.6256 280.319L65.4023 320.5C64.949 323.721 63.1594 323.721 63.1594 323.721H33.9303ZM59.8189 282.991C59.1031 281.703 57.409 280.772 55.4047 280.772C53.472 280.772 51.4916 281.631 50.6326 282.848L50.1077 318.949H56.9795L59.8189 282.991ZM41.0884 282.848C40.2294 281.631 38.249 280.772 36.3163 280.772C34.312 280.772 32.6179 281.703 31.9021 282.991L34.7415 318.949H41.6134L41.0884 282.848Z" fill="#141313"/>
<path d="M610.277 276L601.096 277.847L607.497 286.231L612.099 285.284L610.277 276V276ZM594.228 279.221L589.626 280.144L596.05 288.504L600.629 287.581L594.228 279.221V279.221ZM582.781 281.494L578.179 282.465L584.603 290.825L589.182 289.902L582.781 281.494ZM571.311 283.863L569.022 284.313C567.808 284.558 566.74 285.283 566.052 286.326C565.365 287.37 565.114 288.647 565.354 289.878L566.265 294.52L577.712 292.223L571.311 283.863ZM566.265 294.52V318.202C566.265 319.458 566.758 320.663 567.634 321.551C568.51 322.44 569.698 322.939 570.938 322.939H608.314C610.907 322.939 612.986 320.831 612.986 318.202V294.52H566.265Z" fill="#141313"/>
<path d="M496 297C496 294.603 494.3 292.597 492.047 292.115C492.947 290.612 493.5 288.875 493.5 287C493.5 281.485 489.015 277 483.5 277C479.707 277 476.447 279.143 474.75 282.26C473.052 279.143 469.792 277 466 277C460.485 277 456 281.485 456 287C456 289.255 456.78 291.317 458.042 292.99C457.411 293.451 456.898 294.055 456.543 294.751C456.188 295.448 456.002 296.218 456 297V317C456 319.758 458.242 322 461 322H491C493.757 322 496 319.758 496 317V310.405L506 315.405V297.905L496 302.905V297ZM483.5 282C486.257 282 488.5 284.242 488.5 287C488.5 289.758 486.257 292 483.5 292C480.742 292 478.5 289.758 478.5 287C478.5 284.242 480.742 282 483.5 282ZM466 282C468.757 282 471 284.242 471 287C471 289.758 468.757 292 466 292C463.242 292 461 289.758 461 287C461 284.242 463.242 282 466 282ZM461 317V297H491L491.005 317H461Z" fill="#141313"/>
<path d="M358.93 323.721H353.562C353.562 323.721 351.772 323.721 351.319 320.5L347.095 280.319L347 279.579C347 277.599 349.147 276 351.772 276C354.397 276 356.544 277.599 356.544 279.579C356.544 277.599 358.692 276 361.316 276C363.941 276 366.088 277.599 366.088 279.579C366.088 277.599 368.236 276 370.861 276C373.461 276 375.633 277.575 375.633 279.579C375.633 277.599 377.78 276 380.405 276C383.029 276 385.177 277.599 385.177 279.579C385.177 277.599 387.324 276 389.949 276C392.574 276 394.721 277.599 394.721 279.579L394.626 280.319L390.402 320.5C389.949 323.721 388.159 323.721 388.159 323.721H358.93ZM384.819 282.991C384.103 281.703 382.409 280.772 380.405 280.772C378.472 280.772 376.492 281.631 375.633 282.848L375.108 318.949H381.98L384.819 282.991ZM366.088 282.848C365.229 281.631 363.249 280.772 361.316 280.772C359.312 280.772 357.618 281.703 356.902 282.991L359.742 318.949H366.613L366.088 282.848Z" fill="#141313"/>
<path d="M394.277 364L385.096 365.847L391.497 374.231L396.099 373.284L394.277 364V364ZM378.228 367.221L373.626 368.144L380.05 376.504L384.629 375.581L378.228 367.221V367.221ZM366.781 369.494L362.179 370.465L368.603 378.825L373.182 377.902L366.781 369.494ZM355.311 371.863L353.022 372.313C351.808 372.558 350.74 373.283 350.052 374.326C349.365 375.37 349.114 376.647 349.354 377.878L350.265 382.52L361.712 380.223L355.311 371.863ZM350.265 382.52V406.202C350.265 407.458 350.758 408.663 351.634 409.551C352.51 410.44 353.698 410.939 354.938 410.939H392.314C394.907 410.939 396.986 408.831 396.986 406.202V382.52H350.265Z" fill="#141313"/>
<path d="M280 385C280 382.603 278.3 380.597 276.047 380.115C276.947 378.612 277.5 376.875 277.5 375C277.5 369.485 273.015 365 267.5 365C263.707 365 260.447 367.143 258.75 370.26C257.052 367.143 253.792 365 250 365C244.485 365 240 369.485 240 375C240 377.255 240.78 379.317 242.042 380.99C241.411 381.451 240.898 382.055 240.543 382.751C240.188 383.448 240.002 384.218 240 385V405C240 407.758 242.242 410 245 410H275C277.757 410 280 407.758 280 405V398.405L290 403.405V385.905L280 390.905V385ZM267.5 370C270.257 370 272.5 372.242 272.5 375C272.5 377.758 270.257 380 267.5 380C264.742 380 262.5 377.758 262.5 375C262.5 372.242 264.742 370 267.5 370ZM250 370C252.757 370 255 372.242 255 375C255 377.758 252.757 380 250 380C247.242 380 245 377.758 245 375C245 372.242 247.242 370 250 370ZM245 405V385H275L275.005 405H245Z" fill="#141313"/>
<path d="M142.93 411.721H137.562C137.562 411.721 135.772 411.721 135.319 408.5L131.095 368.319L131 367.579C131 365.599 133.147 364 135.772 364C138.397 364 140.544 365.599 140.544 367.579C140.544 365.599 142.692 364 145.316 364C147.941 364 150.088 365.599 150.088 367.579C150.088 365.599 152.236 364 154.861 364C157.461 364 159.633 365.575 159.633 367.579C159.633 365.599 161.78 364 164.405 364C167.029 364 169.177 365.599 169.177 367.579C169.177 365.599 171.324 364 173.949 364C176.574 364 178.721 365.599 178.721 367.579L178.626 368.319L174.402 408.5C173.949 411.721 172.159 411.721 172.159 411.721H142.93ZM168.819 370.991C168.103 369.703 166.409 368.772 164.405 368.772C162.472 368.772 160.492 369.631 159.633 370.848L159.108 406.949H165.98L168.819 370.991ZM150.088 370.848C149.229 369.631 147.249 368.772 145.316 368.772C143.312 368.772 141.618 369.703 140.902 370.991L143.742 406.949H150.613L150.088 370.848Z" fill="#141313"/>
<path d="M67.0113 364L57.8306 365.847L64.2314 374.231L68.8334 373.284L67.0113 364V364ZM50.9626 367.221L46.3606 368.144L52.7848 376.504L57.3634 375.581L50.9626 367.221V367.221ZM39.516 369.494L34.914 370.465L41.3381 378.825L45.9168 377.902L39.516 369.494ZM28.046 371.863L25.7567 372.313C24.5429 372.558 23.4749 373.283 22.7872 374.326C22.0996 375.37 21.8485 376.647 22.0891 377.878L23.0002 382.52L34.4468 380.223L28.046 371.863ZM23.0002 382.52V406.202C23.0002 407.458 23.4924 408.663 24.3686 409.551C25.2448 410.44 26.4332 410.939 27.6723 410.939H65.049C67.642 410.939 69.7211 408.831 69.7211 406.202V382.52H23.0002Z" fill="#141313"/>
<path d="M605 385C605 382.603 603.3 380.597 601.047 380.115C601.947 378.612 602.5 376.875 602.5 375C602.5 369.485 598.015 365 592.5 365C588.707 365 585.447 367.143 583.75 370.26C582.052 367.143 578.792 365 575 365C569.485 365 565 369.485 565 375C565 377.255 565.78 379.317 567.042 380.99C566.411 381.451 565.898 382.055 565.543 382.751C565.188 383.448 565.002 384.218 565 385V405C565 407.758 567.242 410 570 410H600C602.757 410 605 407.758 605 405V398.405L615 403.405V385.905L605 390.905V385ZM592.5 370C595.257 370 597.5 372.242 597.5 375C597.5 377.758 595.257 380 592.5 380C589.742 380 587.5 377.758 587.5 375C587.5 372.242 589.742 370 592.5 370ZM575 370C577.757 370 580 372.242 580 375C580 377.758 577.757 380 575 380C572.242 380 570 377.758 570 375C570 372.242 572.242 370 575 370ZM570 405V385H600L600.005 405H570Z" fill="#141313"/>
<path d="M467.93 411.721H462.562C462.562 411.721 460.772 411.721 460.319 408.5L456.095 368.319L456 367.579C456 365.599 458.147 364 460.772 364C463.397 364 465.544 365.599 465.544 367.579C465.544 365.599 467.692 364 470.316 364C472.941 364 475.088 365.599 475.088 367.579C475.088 365.599 477.236 364 479.861 364C482.461 364 484.633 365.575 484.633 367.579C484.633 365.599 486.78 364 489.405 364C492.029 364 494.177 365.599 494.177 367.579C494.177 365.599 496.324 364 498.949 364C501.574 364 503.721 365.599 503.721 367.579L503.626 368.319L499.402 408.5C498.949 411.721 497.159 411.721 497.159 411.721H467.93ZM493.819 370.991C493.103 369.703 491.409 368.772 489.405 368.772C487.472 368.772 485.492 369.631 484.633 370.848L484.108 406.949H490.98L493.819 370.991ZM475.088 370.848C474.229 369.631 472.249 368.772 470.316 368.772C468.312 368.772 466.618 369.703 465.902 370.991L468.742 406.949H475.613L475.088 370.848Z" fill="#141313"/>
<path d="M503.277 451L494.096 452.847L500.497 461.231L505.099 460.284L503.277 451V451ZM487.228 454.221L482.626 455.144L489.05 463.504L493.629 462.581L487.228 454.221V454.221ZM475.781 456.494L471.179 457.465L477.603 465.825L482.182 464.902L475.781 456.494ZM464.311 458.863L462.022 459.313C460.808 459.558 459.74 460.283 459.052 461.326C458.365 462.37 458.114 463.647 458.354 464.878L459.265 469.52L470.712 467.223L464.311 458.863ZM459.265 469.52V493.202C459.265 494.458 459.758 495.663 460.634 496.551C461.51 497.44 462.698 497.939 463.938 497.939H501.314C503.907 497.939 505.986 495.831 505.986 493.202V469.52H459.265Z" fill="#141313"/>
<path d="M389 472C389 469.603 387.3 467.597 385.047 467.115C385.947 465.612 386.5 463.875 386.5 462C386.5 456.485 382.015 452 376.5 452C372.707 452 369.447 454.143 367.75 457.26C366.052 454.143 362.792 452 359 452C353.485 452 349 456.485 349 462C349 464.255 349.78 466.317 351.042 467.99C350.411 468.451 349.898 469.055 349.543 469.751C349.188 470.448 349.002 471.218 349 472V492C349 494.758 351.242 497 354 497H384C386.757 497 389 494.758 389 492V485.405L399 490.405V472.905L389 477.905V472ZM376.5 457C379.257 457 381.5 459.242 381.5 462C381.5 464.758 379.257 467 376.5 467C373.742 467 371.5 464.758 371.5 462C371.5 459.242 373.742 457 376.5 457ZM359 457C361.757 457 364 459.242 364 462C364 464.758 361.757 467 359 467C356.242 467 354 464.758 354 462C354 459.242 356.242 457 359 457ZM354 492V472H384L384.005 492H354Z" fill="#141313"/>
<path d="M251.93 498.721H246.562C246.562 498.721 244.772 498.721 244.319 495.5L240.095 455.319L240 454.579C240 452.599 242.147 451 244.772 451C247.397 451 249.544 452.599 249.544 454.579C249.544 452.599 251.692 451 254.316 451C256.941 451 259.088 452.599 259.088 454.579C259.088 452.599 261.236 451 263.861 451C266.461 451 268.633 452.575 268.633 454.579C268.633 452.599 270.78 451 273.405 451C276.029 451 278.177 452.599 278.177 454.579C278.177 452.599 280.324 451 282.949 451C285.574 451 287.721 452.599 287.721 454.579L287.626 455.319L283.402 495.5C282.949 498.721 281.159 498.721 281.159 498.721H251.93ZM277.819 457.991C277.103 456.703 275.409 455.772 273.405 455.772C271.472 455.772 269.492 456.631 268.633 457.848L268.108 493.949H274.98L277.819 457.991ZM259.088 457.848C258.229 456.631 256.249 455.772 254.316 455.772C252.312 455.772 250.618 456.703 249.902 457.991L252.742 493.949H259.613L259.088 457.848Z" fill="#141313"/>
<path d="M176.277 451L167.096 452.847L173.497 461.231L178.099 460.284L176.277 451V451ZM160.228 454.221L155.626 455.144L162.05 463.504L166.629 462.581L160.228 454.221V454.221ZM148.781 456.494L144.179 457.465L150.603 465.825L155.182 464.902L148.781 456.494ZM137.311 458.863L135.022 459.313C133.808 459.558 132.74 460.283 132.052 461.326C131.365 462.37 131.114 463.647 131.354 464.878L132.265 469.52L143.712 467.223L137.311 458.863ZM132.265 469.52V493.202C132.265 494.458 132.758 495.663 133.634 496.551C134.51 497.44 135.698 497.939 136.938 497.939H174.314C176.907 497.939 178.986 495.831 178.986 493.202V469.52H132.265Z" fill="#141313"/>
<path d="M62 472C62 469.603 60.3 467.597 58.0475 467.115C58.9475 465.612 59.5 463.875 59.5 462C59.5 456.485 55.015 452 49.5 452C45.7075 452 42.4475 454.143 40.75 457.26C39.0525 454.143 35.7925 452 32 452C26.485 452 22 456.485 22 462C22 464.255 22.78 466.317 24.0425 467.99C23.4115 468.451 22.8978 469.055 22.543 469.751C22.1882 470.448 22.0022 471.218 22 472V492C22 494.758 24.2425 497 27 497H57C59.7575 497 62 494.758 62 492V485.405L72 490.405V472.905L62 477.905V472ZM49.5 457C52.2575 457 54.5 459.242 54.5 462C54.5 464.758 52.2575 467 49.5 467C46.7425 467 44.5 464.758 44.5 462C44.5 459.242 46.7425 457 49.5 457ZM32 457C34.7575 457 37 459.242 37 462C37 464.758 34.7575 467 32 467C29.2425 467 27 464.758 27 462C27 459.242 29.2425 457 32 457ZM27 492V472H57L57.005 492H27Z" fill="#141313"/>
<path d="M576.93 498.721H571.562C571.562 498.721 569.772 498.721 569.319 495.5L565.095 455.319L565 454.579C565 452.599 567.147 451 569.772 451C572.397 451 574.544 452.599 574.544 454.579C574.544 452.599 576.692 451 579.316 451C581.941 451 584.088 452.599 584.088 454.579C584.088 452.599 586.236 451 588.861 451C591.461 451 593.633 452.575 593.633 454.579C593.633 452.599 595.78 451 598.405 451C601.029 451 603.177 452.599 603.177 454.579C603.177 452.599 605.324 451 607.949 451C610.574 451 612.721 452.599 612.721 454.579L612.626 455.319L608.402 495.5C607.949 498.721 606.159 498.721 606.159 498.721H576.93ZM602.819 457.991C602.103 456.703 600.409 455.772 598.405 455.772C596.472 455.772 594.492 456.631 593.633 457.848L593.108 493.949H599.98L602.819 457.991ZM584.088 457.848C583.229 456.631 581.249 455.772 579.316 455.772C577.312 455.772 575.618 456.703 574.902 457.991L577.742 493.949H584.613L584.088 457.848Z" fill="#141313"/>
</svg>
