<svg viewBox="0 0 33 33" xmlns="http://www.w3.org/2000/svg">
<path d="M19.8086 14.373V18.2832C19.8086 18.3405 19.8122 18.4479 19.8193 18.6055C19.8265 18.763 19.8265 18.8704 19.8193 18.9277L19.7871 19.1855L19.7119 19.4326L19.5723 19.5938L19.3359 19.7119L18.9922 19.7441V13.1055C19.1211 13.1055 19.2357 13.1126 19.3359 13.127C19.4362 13.1413 19.515 13.1771 19.5723 13.2344C19.6296 13.2917 19.6761 13.3311 19.7119 13.3525C19.7477 13.374 19.7728 13.4421 19.7871 13.5566C19.8014 13.6712 19.8086 13.7464 19.8086 13.7822V14.373ZM26.5977 16.4355V19.0352C26.5977 19.0495 26.6012 19.139 26.6084 19.3037C26.6156 19.4684 26.6156 19.5794 26.6084 19.6367C26.6012 19.694 26.5833 19.7764 26.5547 19.8838C26.526 19.9912 26.4723 20.0664 26.3936 20.1094C26.3148 20.1523 26.2181 20.1738 26.1035 20.1738C25.9746 20.1738 25.8743 20.1094 25.8027 19.9805C25.7454 19.8372 25.7168 18.6556 25.7168 16.4355V15.9092L25.749 15.7266L25.8242 15.5762L25.9316 15.458L26.1035 15.4258C26.1895 15.4258 26.2611 15.4365 26.3184 15.458C26.3757 15.4795 26.4222 15.5117 26.458 15.5547C26.4938 15.5977 26.5225 15.6406 26.5439 15.6836C26.5654 15.7266 26.5798 15.7874 26.5869 15.8662C26.5941 15.945 26.5977 16.0023 26.5977 16.0381V16.4355ZM3.86719 21.5059H6.48828V11.3652H3.86719V21.5059ZM13.1914 21.5059H15.4688V11.3652H12.0527L11.4512 16.1133C11.1647 13.9935 10.9355 12.4108 10.7637 11.3652H7.36914V21.5059H9.66797V14.8027L10.6348 21.5059H12.2676L13.1914 14.6523V21.5059ZM22.3223 14.9531C22.3223 13.9935 22.2865 13.349 22.2148 13.0195C22.1719 12.7904 22.0931 12.5863 21.9785 12.4072C21.8639 12.2282 21.7422 12.0814 21.6133 11.9668C21.4844 11.8522 21.3053 11.752 21.0762 11.666C20.847 11.5801 20.6572 11.5192 20.5068 11.4834C20.3564 11.4476 20.1344 11.4189 19.8408 11.3975C19.5472 11.376 19.3395 11.3652 19.2178 11.3652H16.3711V21.5059H17.5742C19.9948 21.5202 21.4056 21.3447 21.8066 20.9795C22.2077 20.6143 22.3867 19.3216 22.3438 17.1016C22.3294 16.2135 22.3223 15.4974 22.3223 14.9531ZM29.1328 19.1855V16.3281C29.1328 15.9128 29.1185 15.5905 29.0898 15.3613C29.0612 15.1322 28.9932 14.8923 28.8857 14.6416C28.7783 14.391 28.6029 14.2119 28.3594 14.1045C28.1159 13.9971 27.7865 13.9434 27.3711 13.9434C26.7122 13.9434 26.1608 14.1868 25.7168 14.6738V11.3652H23.2031V21.5059H25.5664L25.7168 20.8613C26.1465 21.377 26.6979 21.6348 27.3711 21.6348C28.0872 21.6348 28.5599 21.4163 28.7891 20.9795C29.0182 20.5426 29.1328 19.9447 29.1328 19.1855ZM33 3.4375V29.5625C33 30.5078 32.6634 31.3171 31.9902 31.9902C31.3171 32.6634 30.5078 33 29.5625 33H3.4375C2.49219 33 1.68294 32.6634 1.00977 31.9902C0.336589 31.3171 0 30.5078 0 29.5625V3.4375C0 2.49219 0.336589 1.68294 1.00977 1.00977C1.68294 0.336589 2.49219 0 3.4375 0H29.5625C30.5078 0 31.3171 0.336589 31.9902 1.00977C32.6634 1.68294 33 2.49219 33 3.4375Z" />
</svg>
