<svg width="24" height="24" viewBox="0 0 24 24" xmlns="http://www.w3.org/2000/svg">
<path d="M12.29 0.811584C7.01512 0.811584 2.58946 4.43532 1.32607 9.32245H3.2779C4.48455 5.48783 8.0629 2.70289 12.29 2.70289C17.5062 2.70289 21.7465 6.94319 21.7465 12.1594C21.7465 17.3756 17.5062 21.6159 12.29 21.6159C8.06385 21.6159 4.48455 18.831 3.27695 14.9964H1.32607C2.58946 19.8835 7.01512 23.5072 12.29 23.5072C18.5473 23.5072 23.6378 18.4168 23.6378 12.1594C23.6378 5.90203 18.5473 0.811584 12.29 0.811584ZM11.6696 7.69688L10.3098 9.05673L12.4668 11.2138H0.942139V13.1051H12.4677L10.3098 15.2621L11.6696 16.6219L15.4522 12.8393L16.1009 12.1594L15.4513 11.4795L11.6696 7.69688Z" />
</svg>
