<svg width="16" height="18" viewBox="0 0 16 18"  xmlns="http://www.w3.org/2000/svg">
<path d="M13.3691 0.405273V2.30533H11.5522V0.405273H4.28449V2.30533H2.46756V0.405273H0.650635V17.5058H2.46756V15.6057H4.28449V17.5058H11.5522V15.6057H13.3691V17.5058H15.1861V0.405273H13.3691ZM4.28449 13.7057H2.46756V11.8056H4.28449V13.7057ZM4.28449 9.90555H2.46756V8.00549H4.28449V9.90555ZM4.28449 6.10544H2.46756V4.20538H4.28449V6.10544ZM13.3691 13.7057H11.5522V11.8056H13.3691V13.7057ZM13.3691 9.90555H11.5522V8.00549H13.3691V9.90555ZM13.3691 6.10544H11.5522V4.20538H13.3691V6.10544Z" />
</svg>
