<svg width="32" height="32" viewBox="0 0 32 32" xmlns="http://www.w3.org/2000/svg">
<path fill-rule="evenodd" clip-rule="evenodd" d="M12.0092 4.00442C9.88586 4.00442 7.84946 4.84788 6.34802 6.34925C4.84658 7.85062 4.00307 9.88692 4.00307 12.0102C4.00307 14.1334 4.84658 16.1697 6.34802 17.6711C7.84946 19.1725 9.88586 20.0159 12.0092 20.0159C14.1326 20.0159 16.169 19.1725 17.6704 17.6711C19.1719 16.1697 20.0154 14.1334 20.0154 12.0102C20.0154 9.88692 19.1719 7.85062 17.6704 6.34925C16.169 4.84788 14.1326 4.00442 12.0092 4.00442ZM2.27097e-07 12.0102C-0.000240964 10.1202 0.445627 8.2569 1.30134 6.57175C2.15706 4.88659 3.39845 3.4272 4.92457 2.31225C6.45069 1.1973 8.21844 0.458287 10.084 0.15531C11.9496 -0.147666 13.8604 -0.00604934 15.661 0.568642C17.4615 1.14333 19.101 2.13487 20.446 3.46262C21.7911 4.79036 22.8038 6.41682 23.4017 8.20971C23.9996 10.0026 24.1659 11.9113 23.887 13.7806C23.6081 15.6498 22.8919 17.4269 21.7967 18.9672L31.4381 28.6081C31.8027 28.9856 32.0045 29.4912 31.9999 30.0159C31.9954 30.5407 31.7849 31.0427 31.4138 31.4138C31.0427 31.7849 30.5406 31.9954 30.0159 31.9999C29.4911 32.0045 28.9855 31.8027 28.608 31.4382L18.9686 21.7992C17.1719 23.0767 15.0583 23.835 12.8592 23.991C10.6602 24.1471 8.46064 23.6948 6.50159 22.6838C4.54254 21.6728 2.8996 20.1421 1.75279 18.2594C0.605986 16.3767 -0.000428431 14.2146 2.27097e-07 12.0102Z" />
</svg>
