<svg width="44" height="41" viewBox="0 0 44 41" class="star-icon" xmlns="http://www.w3.org/2000/svg">
<path d="M28.0232 13.243L28.3762 13.9418L29.1513 14.0518L42.3257 15.9217C42.3261 15.9218 42.3266 15.9219 42.327 15.9219C42.386 15.9308 42.4231 15.9586 42.4434 15.9851C42.4536 15.9985 42.4582 16.0099 42.4602 16.0174C42.4618 16.0236 42.4629 16.031 42.4609 16.0433L42.4596 16.0518L42.4583 16.0603C42.4563 16.0739 42.4487 16.0962 42.4233 16.1208C42.4231 16.121 42.4229 16.1212 42.4227 16.1214L32.8903 25.1978L32.3082 25.7521L32.4473 26.5437L34.7 39.3639L34.7002 39.3651C34.704 39.3862 34.7013 39.4072 34.6826 39.433C34.6631 39.4598 34.6289 39.4863 34.5736 39.4957L34.5715 39.496C34.5269 39.5036 34.4853 39.4944 34.4608 39.4817L34.4541 39.4782L22.6662 33.4255L21.9811 33.0737L21.2959 33.4255L9.50807 39.4782L9.50577 39.4794C9.47698 39.4943 9.44186 39.5021 9.40516 39.4995C9.36851 39.497 9.33638 39.4845 9.31217 39.4674C9.28827 39.4504 9.27443 39.4307 9.26741 39.4138C9.26053 39.3973 9.2591 39.3811 9.2618 39.3659L9.26215 39.3639L11.5149 26.5437L11.654 25.7521L11.0719 25.1978L1.53673 16.1188L1.53663 16.1187C1.50911 16.0925 1.5003 16.0643 1.50001 16.0429C1.49972 16.0219 1.50732 15.995 1.53205 15.9692C1.55728 15.9449 1.59047 15.9282 1.62838 15.9229L1.6319 15.9224L14.8108 14.0518L15.586 13.9418L15.939 13.243L21.8266 1.58592C21.8269 1.58538 21.8271 1.58483 21.8274 1.58429C21.8425 1.55593 21.8713 1.52708 21.9214 1.51053C21.9726 1.49361 22.0233 1.49755 22.0667 1.51847L22.0684 1.51929C22.1018 1.53531 22.1216 1.55816 22.1312 1.57728L22.1319 1.57859L28.0232 13.243Z" />
</svg>
