<svg width="28" height="29" viewBox="0 0 28 29" xmlns="http://www.w3.org/2000/svg">
<path d="M14.0433 2.60144C7.77775 2.60144 2.48535 7.89384 2.48535 14.1594C2.48535 17.8452 4.32538 21.1843 7.10854 23.3179V23.4058H7.22643C9.1543 24.8448 11.5156 25.7174 14.0433 25.7174C16.5711 25.7174 18.9323 24.8448 20.8602 23.4058H20.9781V23.3179C23.7613 21.1843 25.6013 17.8464 25.6013 14.1594C25.6013 7.89384 20.3089 2.60144 14.0433 2.60144ZM9.50566 22.1656C9.67599 21.3952 10.1038 20.7058 10.7186 20.2111C11.3334 19.7165 12.0985 19.4462 12.8875 19.4449H15.1991C15.9881 19.4465 16.753 19.7168 17.3678 20.2114C17.9826 20.706 18.4105 21.3953 18.581 22.1656C17.231 22.9481 15.6799 23.4058 14.0433 23.4058C12.4067 23.4058 10.8556 22.9481 9.50566 22.1656ZM20.5273 20.6793C20.0865 19.6296 19.3458 18.7334 18.3981 18.1026C17.4503 17.4719 16.3376 17.1347 15.1991 17.1333H12.8875C11.7491 17.1347 10.6363 17.4719 9.68859 18.1026C8.74084 18.7334 8.00017 19.6296 7.5593 20.6793C5.86375 18.993 4.79695 16.6744 4.79695 14.1594C4.79695 9.14672 9.03063 4.91303 14.0433 4.91303C19.056 4.91303 23.2897 9.14672 23.2897 14.1594C23.2897 16.6744 22.2229 18.993 20.5273 20.6793Z" />
<path d="M14.0436 7.22461C11.4084 7.22461 9.42041 9.21258 9.42041 11.8478C9.42041 14.483 11.4084 16.471 14.0436 16.471C16.6788 16.471 18.6668 14.483 18.6668 11.8478C18.6668 9.21258 16.6788 7.22461 14.0436 7.22461ZM14.0436 14.1594C12.6821 14.1594 11.732 13.2093 11.732 11.8478C11.732 10.4863 12.6821 9.5362 14.0436 9.5362C15.4051 9.5362 16.3552 10.4863 16.3552 11.8478C16.3552 13.2093 15.4051 14.1594 14.0436 14.1594Z"/>
</svg>
